<svg xmlns="http://www.w3.org/2000/svg" viewBox="0 0 640 960" role="img" aria-labelledby="title">
  <title id="title">Diamond Sentinel card front</title>
  <defs>
    <linearGradient id="bg" x1="0" x2="1" y1="0" y2="1">
      <stop offset="0" stop-color="#2e77d0"/>
      <stop offset="1" stop-color="#06131f"/>
    </linearGradient>
    <linearGradient id="gem" x1="0" x2="1" y1="0" y2="1">
      <stop offset="0" stop-color="#d8fcff"/>
      <stop offset=".45" stop-color="#64d8ff"/>
      <stop offset="1" stop-color="#1f74d5"/>
    </linearGradient>
  </defs>
  <rect width="640" height="960" rx="44" fill="#06131f"/>
  <rect x="24" y="24" width="592" height="912" rx="34" fill="url(#bg)"/>
  <rect x="70" y="72" width="500" height="630" rx="28" fill="#0b1c30" stroke="#9ed0ff" stroke-opacity=".5" stroke-width="6"/>
  <g transform="translate(130 155)">
    <path d="M190 0 380 132 308 398H72L0 132Z" fill="url(#gem)" stroke="#eaffff" stroke-width="10"/>
    <path d="M0 132h380M72 398 190 132l118 266M190 0v132M90 48l100 84 100-84" fill="none" stroke="#ffffff" stroke-opacity=".42" stroke-width="8"/>
  </g>
  <g fill="#dffaff" opacity=".82">
    <rect x="112" y="612" width="88" height="20" rx="10"/>
    <rect x="440" y="612" width="88" height="20" rx="10"/>
    <rect x="300" y="95" width="40" height="40" rx="8" transform="rotate(45 320 115)"/>
  </g>
  <path d="M112 760h416" stroke="#9ed0ff" stroke-width="4" stroke-linecap="round" opacity=".6"/>
  <text x="320" y="808" text-anchor="middle" fill="#ffffff" font-family="Inter, Arial, sans-serif" font-size="50" font-weight="800">Diamond</text>
  <text x="320" y="858" text-anchor="middle" fill="#ffffff" font-family="Inter, Arial, sans-serif" font-size="50" font-weight="800">Sentinel</text>
  <text x="320" y="900" text-anchor="middle" fill="#bceaff" font-family="Inter, Arial, sans-serif" font-size="28" font-weight="700">RARE</text>
</svg>
